<svg xmlns="http://www.w3.org/2000/svg" xmlns:xlink="http://www.w3.org/1999/xlink" viewBox="0 0 386 162"><defs><linearGradient id="linear-gradient" x1="234.65" y1="156.13" x2="354.25" y2="156.13" gradientUnits="userSpaceOnUse"><stop offset="0" stop-color="#202124" stop-opacity="0"/><stop offset="1" stop-color="#202124"/></linearGradient><linearGradient id="linear-gradient-2" x1="9.27" y1="156.13" x2="103.79" y2="156.13" xlink:href="#linear-gradient"/><linearGradient id="linear-gradient-3" x1="238.79" y1="38.58" x2="238.79" y2="50.34" gradientUnits="userSpaceOnUse"><stop offset="0" stop-color="#9ba1a7"/><stop offset="1" stop-color="#bdc1c7"/></linearGradient><linearGradient id="linear-gradient-4" x1="221.7" y1="103.62" x2="221.7" y2="38.22" gradientUnits="userSpaceOnUse"><stop offset="0" stop-color="#bdc1c7"/><stop offset=".26" stop-color="#e9eaed"/><stop offset="1" stop-color="#e9eaed"/></linearGradient><linearGradient id="linear-gradient-5" x1="173.2" y1="146.24" x2="173.2" y2="156.81" gradientUnits="userSpaceOnUse"><stop offset="0" stop-color="#bdc1c7"/><stop offset="1" stop-color="#9ba1a7"/></linearGradient><linearGradient id="linear-gradient-6" x1="-16069.74" y1="6190.82" x2="-15999.61" y2="6138.99" gradientTransform="rotate(-90 -11011.185 -4918.845)" gradientUnits="userSpaceOnUse"><stop offset="0" stop-color="#3264ae"/><stop offset="1" stop-color="#517cbe"/></linearGradient><linearGradient id="linear-gradient-7" x1="-16070.26" y1="6167.64" x2="-15999" y2="6139.91" gradientTransform="rotate(-90 -10998.045 -4924.805)" gradientUnits="userSpaceOnUse"><stop offset="0" stop-color="#3d4144"/><stop offset="1" stop-color="#60646a"/></linearGradient><linearGradient id="linear-gradient-8" x1="136.61" y1="143.31" x2="100.77" y2="143.31" gradientUnits="userSpaceOnUse"><stop offset="0" stop-color="#3d4144"/><stop offset="1" stop-color="#80868c"/></linearGradient><linearGradient id="linear-gradient-9" x1="-6366.46" y1="13554.02" x2="-6404.43" y2="13554.02" gradientTransform="rotate(180 -3013.415 6825.26)" gradientUnits="userSpaceOnUse"><stop offset="0" stop-color="#fff"/><stop offset="1" stop-color="#808386"/></linearGradient><linearGradient id="linear-gradient-10" x1="-6438.81" y1="13554.25" x2="-6438.81" y2="13602.15" gradientTransform="translate(6793.21 -13515.09)" xlink:href="#linear-gradient-9"/><style>.cls-2{fill:#f0f3f4}.cls-7{stroke-miterlimit:10;stroke-width:.53px}.cls-6,.cls-7{fill:#a9d4b4}.cls-7{stroke:#5fb674}.cls-9{fill:#fff}.cls-14{fill:#dadce0}.cls-27{fill:#686c72}</style></defs><g style="isolation:isolate"><g id="Layer_1" data-name="Layer 1"><path class="cls-2" d="M220.19 48.74c-2.31-19.81-17.12-37.19-17.12-37.19l13.3-9.06s14.81 17.39 17.12 37.2Z"/><path style="fill:url(#linear-gradient);opacity:.2" d="M234.65 154h119.6v4.25h-119.6z"/><path transform="rotate(45 303.143 82.196)" style="fill:#cfe6d5" d="M228.15 49.15h149.99v66.09H228.15z"/><path transform="rotate(45 303.143 82.196)" style="stroke-width:.53px;stroke-miterlimit:10;stroke:#a9d4b4;fill:#cfe6d5" d="M230.34 50.93h145.61v62.52H230.34z"/><path class="cls-6" transform="rotate(45 282.24 32.207)" d="M266.39 28.37h31.68v7.66h-31.68z"/><path class="cls-6" transform="rotate(45 337.445 85.184)" d="M328.15 82.94h18.6v4.5h-18.6z"/><path class="cls-7" d="m327.04 82.43 36.14 36.14"/><path class="cls-6" transform="rotate(45 266.206 38.976)" d="M256.91 36.73h18.6v4.5h-18.6z"/><path class="cls-7" d="m255.81 36.23 63.99 64"/><path class="cls-6" transform="rotate(45 325.06 115.374)" d="M315.76 113.13h18.6v4.5h-18.6z"/><path class="cls-6" transform="rotate(45 246.272 59.579)" d="M236.97 57.33h18.6v4.5h-18.6z"/><path class="cls-6" transform="rotate(45 303.709 117.02)" d="M301.76 114.77h3.9v4.5h-3.9z"/><path class="cls-6" transform="rotate(45 307.067 120.381)" d="M305.12 118.14h3.9v4.5h-3.9z"/><path class="cls-6" transform="rotate(45 313.362 126.669)" d="M311.41 124.42h3.9v4.5h-3.9z"/><path class="cls-6" transform="rotate(45 318.366 131.681)" d="M316.42 129.43h3.9v4.5h-3.9z"/><path class="cls-6" transform="rotate(45 310.157 123.471)" d="M308.6 121.22h3.1v4.5h-3.1z"/><path class="cls-6" transform="rotate(45 321.237 134.55)" d="M319.69 132.31h3.1v4.5h-3.1z"/><path class="cls-6" transform="rotate(45 324.109 137.42)" d="M322.56 135.17h3.1v4.5h-3.1z"/><path class="cls-6" transform="rotate(45 326.963 140.283)" d="M325.42 138.03h3.1v4.5h-3.1z"/><path class="cls-7" d="m249.27 42.77 63.99 63.99m-59.61-36.61 30.37 30.37"/><path d="M260.59 70.9c1.26 1.26-.24 2.76 1 4s2.75-.24 4 1-.23 2.75 1 4 2.76-.24 4 1-.23 2.75 1 4 2.75-.23 4 1-.23 2.76 1 4 2.76-.24 4 1-.23 2.75 1 4" style="stroke-linecap:round;stroke:#3d4144;stroke-width:1.06px;fill:none;stroke-miterlimit:10"/><rect class="cls-9" x="320.72" y="111.02" width="38.25" height="7.66" rx="1.03" transform="rotate(45 339.848 114.85)"/><path style="fill:url(#linear-gradient-2);opacity:.2" d="M9.27 154h94.53v4.25H9.27z"/><path d="M244.84 37.28a6.39 6.39 0 0 1 6.4 6.4v7.7h-24.9v-14.1Z" style="fill:url(#linear-gradient-3)"/><path d="M238.76 43.68a6.4 6.4 0 0 1 6.4-6.4h-40.53a6.4 6.4 0 0 0-6.4 6.4v60.58h40.53Z" style="fill:url(#linear-gradient-4)"/><path d="M202.34 49.06h31.68m-31.68 7.16h31.68m-31.68 7.16h31.68m-31.68 7.16h31.68m-31.68 7.16h31.68m-31.68 7.16h31.68m-31.68 7.16h31.68" style="stroke:#bdc1c7;stroke-width:1.28px;fill:none;stroke-miterlimit:10"/><path class="cls-14" d="M88.73 150.06V137a8.52 8.52 0 0 1 6.08-8.17l85.74-25.54a8.36 8.36 0 0 1 2.43-.36h66.18a8.52 8.52 0 0 1 8.52 8.52v38.65a8.52 8.52 0 0 1-8.52 8.52H97.25a8.51 8.51 0 0 1-8.52-8.56Z"/><path d="M88.73 143.31v6.75a8.51 8.51 0 0 0 8.52 8.52h151.91a8.52 8.52 0 0 0 8.52-8.52v-6.75Z" style="fill:url(#linear-gradient-5)"/><path d="M151.44 150.06V137a8.53 8.53 0 0 1 6.09-8.17l85.74-25.54a8.36 8.36 0 0 1 2.43-.36h27.78a8.52 8.52 0 0 1 8.52 8.52v38.65a8.52 8.52 0 0 1-8.52 8.52H160a8.52 8.52 0 0 1-8.56-8.56Z" style="fill:#e9eaed"/><path d="m131.38 121.82 5.59-1.66h6.6a.32.32 0 0 1 .09.62l-5.59 1.67h-6.6a.32.32 0 0 1-.09-.63Z" style="fill:#e84336"/><path d="m143.57 121.82 5.59-1.66h6.6a.32.32 0 0 1 .09.62l-5.6 1.67h-6.6a.32.32 0 0 1-.08-.63Z" style="fill:#fbbc0c"/><path d="m155.75 121.82 5.6-1.66H168a.32.32 0 0 1 .09.62l-5.6 1.67h-6.6a.32.32 0 0 1-.14-.63Z" style="fill:#32a853"/><path d="m149.79 116.31 5.6-1.67H162a.32.32 0 0 1 .09.62l-5.6 1.67h-6.6a.31.31 0 0 1-.1-.62Zm12.21 0 5.6-1.67h6.6a.32.32 0 0 1 .09.62l-5.6 1.67h-6.6a.31.31 0 0 1-.09-.62Zm12.17 0 5.6-1.67h6.6a.32.32 0 0 1 .09.62l-5.6 1.67h-6.6a.31.31 0 0 1-.09-.62Zm-6.46-5.39 5.6-1.67h6.6a.31.31 0 0 1 .09.61l-5.6 1.67h-6.6a.31.31 0 0 1-.09-.61Zm12.19 0 5.6-1.67h6.6a.31.31 0 0 1 .09.61l-5.6 1.67H180a.31.31 0 0 1-.1-.61Zm12.19 0 5.59-1.67h6.6a.31.31 0 0 1 .09.61l-5.59 1.67h-6.6a.31.31 0 0 1-.09-.61Z" style="fill:#f9fafb"/><path class="cls-2" d="M316.3 38.56C331.59 25.76 338 3.84 338 3.84L352.88 10s-6.41 21.92-21.71 34.72Zm-180.07-4.63c17.77 24.73 50.45 36.94 50.45 36.94l-11 22S143 80.62 125.19 55.89ZM15.1 55.84C42.15 41.85 59 11.31 59 11.31l20.11 14.12S62.27 56 35.22 70Z"/><rect x="38.76" y="54.52" width="64.28" height="99.17" rx="9.74" transform="rotate(-138.77 70.908 104.109)" style="fill:#3264ae"/><rect x="39.97" y="54.44" width="64.28" height="99.17" rx="9.74" transform="rotate(-138.77 72.116 104.025)" style="fill:url(#linear-gradient-6)"/><path transform="rotate(-138.77 80.314 111.21)" style="fill:url(#linear-gradient-7)" d="M73.52 61.63H87.1v99.17H73.52z"/><path class="cls-9" transform="rotate(131.23 76.644 88.532)" d="M50.84 83.78h51.6v9.5h-51.6z"/><path d="M185.79 158.58v-15.65a6.11 6.11 0 0 1 4.46-5.89L245 121.68a6.12 6.12 0 0 1 7.77 5.89v31Z" style="fill:#202124;opacity:.2"/><path class="cls-14" d="M189 158.58v-15.65a6.11 6.11 0 0 1 4.46-5.89l54.75-15.36a6.12 6.12 0 0 1 7.77 5.89v31Z"/><rect x="101.53" y="141.92" width="37.12" height="2.77" rx="1.36" style="fill:url(#linear-gradient-8)"/><path style="stroke:#e1e2e5;stroke-linejoin:round;stroke-width:2.99px;stroke-linecap:round;fill:none" d="M362.43 25.62h5.51V60.5"/><path class="cls-27" transform="rotate(-90 354.63 89.39)" d="M304.86 82.27h99.54V96.5h-99.54z"/><path transform="rotate(-90 354.63 96.5)" style="fill:url(#linear-gradient-9);opacity:.4;mix-blend-mode:multiply" d="M311.97 89.39h85.32v14.23h-85.32z"/><path d="m361.52 139.16-6 18.51a.84.84 0 0 1-1.59 0l-6.45-18.53Z" style="fill:#e1e2e5"/><path class="cls-27" d="m352.71 154.29 1.18 3.4a.84.84 0 0 0 1.59 0l1.09-3.36Z"/><path class="cls-27" d="M337.37 30h43.19v18.34h-43.19a9.13 9.13 0 0 1-9.13-9.13v-.1a9.13 9.13 0 0 1 9.13-9.11Z" transform="rotate(90 354.4 39.16)"/><path d="M337.37 30h43.19v18.34h-43.19a9.13 9.13 0 0 1-9.13-9.13v-.1a9.13 9.13 0 0 1 9.13-9.11Z" transform="rotate(90 354.4 39.16)" style="fill:url(#linear-gradient-10);opacity:.4;mix-blend-mode:multiply"/></g></g></svg>